# xmcd
# 
# Track frame offsets:
#     150
#     23072
#     45737
#     65334
#     104302
#     136048
#     160733
#     194223
#     215860
#     241952
# 
# Disc length: 3717
# 
# Revision: 0
# Processed by: cddbd v1.5.2PL0 Copyright (c) Steve Scherf et al.
# Submitted via: fre:ac v1.0.27
# 
DISCID=8d0e830a
DTITLE=Live in Cologne - EDDIE KOLD BAND
DYEAR=2013
DGENRE=Blues
TTITLE0=Help Me
TTITLE1=Suzie Q
TTITLE2=(Sitting On) The Dock Of The Bay
TTITLE3=Hoochie Coochie Man
TTITLE4=Use Me
TTITLE5=Before You Accuse Me
TTITLE6=Got My Mojo Working
TTITLE7=I'm Ready
TTITLE8=Thrill Is Gone
TTITLE9=Papa Was A Rolling Stone
EXTD=Larry Doc Watkins voc, Eddiee Kold git, Sven Ostrowski bs, Christian Wübben dr
EXTT0=Miller - Dixon, Bass
EXTT1=Hawkins
EXTT2=Redding, Cropper
EXTT3=Dixon
EXTT4=Withers
EXTT5=McDaniel
EXTT6=Morganfield
EXTT7=Dixon
EXTT8=Taub - King
EXTT9=Whitfield-Strong
PLAYORDER=
